<svg width="214" height="51" viewBox="0 0 214 51" fill="none" xmlns="http://www.w3.org/2000/svg">
<path d="M66.0336 23.7424C64.9284 23.7424 63.9321 23.5247 63.0446 23.0894C62.1739 22.654 61.4873 21.9758 60.985 21.0549C60.4994 20.1171 60.2566 18.9366 60.2566 17.5133V9.90274H65.0289V16.7347C65.0289 17.7896 65.2215 18.5431 65.6066 18.9952C66.0085 19.4473 66.5694 19.6734 67.2894 19.6734C67.7583 19.6734 68.1853 19.5646 68.5704 19.3469C68.9556 19.1292 69.2653 18.7859 69.4998 18.3171C69.7342 17.8315 69.8514 17.2119 69.8514 16.4584V9.90274H74.6237V23.5164H70.0775V19.6734L70.9566 20.7534C70.4877 21.7581 69.8096 22.5117 68.9221 23.014C68.0346 23.4996 67.0718 23.7424 66.0336 23.7424ZM86.5641 9.67669C87.619 9.67669 88.5735 9.89437 89.4275 10.3297C90.2815 10.7484 90.9513 11.4014 91.4369 12.2889C91.9392 13.1764 92.1904 14.3234 92.1904 15.73V23.5164H87.4181V16.5086C87.4181 15.5374 87.2171 14.8341 86.8153 14.3988C86.4301 13.9466 85.8859 13.7206 85.1826 13.7206C84.6803 13.7206 84.2198 13.8378 83.8012 14.0722C83.3826 14.2899 83.056 14.6332 82.8216 15.102C82.5872 15.5709 82.47 16.1821 82.47 16.9356V23.5164H77.6977V9.90274H82.2439V13.7708L81.3648 12.6405C81.8839 11.6526 82.5955 10.9158 83.4998 10.4302C84.404 9.92786 85.4254 9.67669 86.5641 9.67669ZM95.1866 23.5164V9.90274H99.9589V23.5164H95.1866ZM97.5728 8.3957C96.702 8.3957 95.9987 8.1529 95.4629 7.6673C94.9271 7.18169 94.6591 6.57888 94.6591 5.85885C94.6591 5.13881 94.9271 4.536 95.4629 4.05039C95.9987 3.56479 96.702 3.32199 97.5728 3.32199C98.4435 3.32199 99.1468 3.55642 99.6826 4.02528C100.218 4.47739 100.486 5.06346 100.486 5.78349C100.486 6.53701 100.218 7.16495 99.6826 7.6673C99.1635 8.1529 98.4602 8.3957 97.5728 8.3957ZM101.478 23.5164L107.732 15.303L107.632 18.0157L101.629 9.90274H107.004L110.369 14.7002L108.36 14.8006L111.927 9.90274H116.975L110.972 17.8398V15.2276L117.151 23.5164H111.701L108.184 18.3924L110.194 18.6687L106.652 23.5164H101.478ZM66.9629 49.6152C65.6568 49.6152 64.4093 49.4645 63.2204 49.1631C62.0483 48.8617 61.0436 48.4179 60.2063 47.8319L61.9394 44.4912C62.5088 44.9434 63.2121 45.295 64.0493 45.5462C64.9033 45.8141 65.7322 45.948 66.5359 45.948C67.8253 45.948 68.7546 45.6634 69.324 45.0941C69.8933 44.5415 70.1779 43.7293 70.1779 42.6577V41.0502L70.4291 37.2323L70.404 33.3894V30.9027H74.9502V42.0297C74.9502 44.6085 74.2553 46.5174 72.8655 47.7565C71.4757 48.9956 69.5081 49.6152 66.9629 49.6152ZM66.134 43.8131C64.9284 43.8131 63.8149 43.5452 62.7934 43.0093C61.7887 42.4567 60.9766 41.6948 60.3571 40.7236C59.7542 39.7357 59.4528 38.5719 59.4528 37.2323C59.4528 35.8927 59.7542 34.7373 60.3571 33.7661C60.9766 32.7782 61.7887 32.0163 62.7934 31.4804C63.8149 30.9446 64.9284 30.6767 66.134 30.6767C67.2894 30.6767 68.2774 30.9111 69.0979 31.38C69.9184 31.8321 70.538 32.5437 70.9566 33.5149C71.392 34.4862 71.6096 35.7253 71.6096 37.2323C71.6096 38.7394 71.392 39.9785 70.9566 40.9497C70.538 41.9209 69.9184 42.6409 69.0979 43.1098C68.2774 43.5786 67.2894 43.8131 66.134 43.8131ZM67.2643 40.0203C67.8337 40.0203 68.336 39.9031 68.7714 39.6687C69.2235 39.4343 69.5751 39.1077 69.8263 38.6891C70.0942 38.2705 70.2282 37.7849 70.2282 37.2323C70.2282 36.6797 70.0942 36.1941 69.8263 35.7755C69.5751 35.3569 69.2235 35.0387 68.7714 34.8211C68.336 34.5866 67.8337 34.4694 67.2643 34.4694C66.695 34.4694 66.1843 34.5866 65.7322 34.8211C65.2801 35.0387 64.92 35.3569 64.6521 35.7755C64.4009 36.1941 64.2754 36.6797 64.2754 37.2323C64.2754 37.7849 64.4009 38.2705 64.6521 38.6891C64.92 39.1077 65.2801 39.4343 65.7322 39.6687C66.1843 39.9031 66.695 40.0203 67.2643 40.0203ZM86.3304 44.5164V41.9795L86.0039 41.3516V36.6797C86.0039 35.9262 85.7694 35.3485 85.3006 34.9466C84.8485 34.528 84.12 34.3187 83.1154 34.3187C82.4623 34.3187 81.8009 34.4275 81.1311 34.6452C80.4613 34.8462 79.892 35.1308 79.4231 35.4992L77.8156 32.2591C78.5859 31.7567 79.5068 31.3716 80.5785 31.1037C81.6669 30.819 82.747 30.6767 83.8186 30.6767C86.029 30.6767 87.7369 31.1874 88.9426 32.2088C90.165 33.2135 90.7762 34.7959 90.7762 36.956V44.5164H86.3304ZM82.3116 44.7424C81.2232 44.7424 80.3022 44.5582 79.5487 44.1898C78.7952 43.8214 78.2175 43.3191 77.8156 42.6828C77.4305 42.0465 77.2379 41.3348 77.2379 40.5478C77.2379 39.7106 77.4472 38.9905 77.8658 38.3877C78.3012 37.7682 78.9626 37.2993 79.8501 36.9811C80.7376 36.6462 81.8846 36.4788 83.2912 36.4788H86.5062V38.9654H83.9442C83.174 38.9654 82.6298 39.091 82.3116 39.3422C82.0102 39.5934 81.8595 39.9283 81.8595 40.3469C81.8595 40.7655 82.0186 41.1004 82.3367 41.3516C82.6549 41.6027 83.0902 41.7283 83.6428 41.7283C84.1619 41.7283 84.6308 41.6027 85.0494 41.3516C85.4848 41.0837 85.8029 40.6818 86.0039 40.1459L86.6569 41.9042C86.4057 42.8419 85.9118 43.5535 85.175 44.0391C84.4549 44.508 83.5005 44.7424 82.3116 44.7424ZM111.521 30.6767C112.576 30.6767 113.514 30.8944 114.334 31.3297C115.172 31.7484 115.825 32.4014 116.294 33.2889C116.779 34.1764 117.022 35.3234 117.022 36.73V44.5164H112.25V37.5086C112.25 36.5374 112.066 35.8341 111.697 35.3988C111.329 34.9466 110.826 34.7206 110.19 34.7206C109.738 34.7206 109.328 34.8294 108.959 35.0471C108.591 35.2648 108.306 35.5997 108.105 36.0518C107.904 36.4872 107.804 37.0565 107.804 37.7598V44.5164H103.032V37.5086C103.032 36.5374 102.847 35.8341 102.479 35.3988C102.127 34.9466 101.625 34.7206 100.972 34.7206C100.503 34.7206 100.085 34.8294 99.7162 35.0471C99.3645 35.2648 99.0799 35.5997 98.8622 36.0518C98.6612 36.4872 98.5608 37.0565 98.5608 37.7598V44.5164H93.7885V30.9027H98.3347V34.6955L97.4305 33.6154C97.9328 32.6442 98.6194 31.9158 99.4901 31.4302C100.361 30.9279 101.332 30.6767 102.404 30.6767C103.626 30.6767 104.698 30.9948 105.619 31.6311C106.556 32.2507 107.184 33.2219 107.503 34.5448L105.945 34.2182C106.431 33.1131 107.159 32.2507 108.13 31.6311C109.118 30.9948 110.249 30.6767 111.521 30.6767ZM120.034 44.5164V30.9027H124.806V44.5164H120.034ZM122.42 29.3957C121.55 29.3957 120.846 29.1529 120.31 28.6673C119.775 28.1817 119.507 27.5789 119.507 26.8588C119.507 26.1388 119.775 25.536 120.31 25.0504C120.846 24.5648 121.55 24.322 122.42 24.322C123.291 24.322 123.994 24.5564 124.53 25.0253C125.066 25.4774 125.334 26.0635 125.334 26.7835C125.334 27.537 125.066 28.1649 124.53 28.6673C124.011 29.1529 123.308 29.3957 122.42 29.3957ZM136.774 30.6767C137.829 30.6767 138.784 30.8944 139.638 31.3297C140.492 31.7484 141.161 32.4014 141.647 33.2889C142.149 34.1764 142.401 35.3234 142.401 36.73V44.5164H137.628V37.5086C137.628 36.5374 137.427 35.8341 137.025 35.3988C136.64 34.9466 136.096 34.7206 135.393 34.7206C134.89 34.7206 134.43 34.8378 134.011 35.0722C133.593 35.2899 133.266 35.6332 133.032 36.102C132.797 36.5709 132.68 37.1821 132.68 37.9356V44.5164H127.908V30.9027H132.454V34.7708L131.575 33.6405C132.094 32.6526 132.806 31.9158 133.71 31.4302C134.614 30.9279 135.636 30.6767 136.774 30.6767ZM152.225 49.6152C150.919 49.6152 149.671 49.4645 148.482 49.1631C147.31 48.8617 146.305 48.4179 145.468 47.8319L147.201 44.4912C147.77 44.9434 148.474 45.295 149.311 45.5462C150.165 45.8141 150.994 45.948 151.798 45.948C153.087 45.948 154.016 45.6634 154.586 45.0941C155.155 44.5415 155.44 43.7293 155.44 42.6577V41.0502L155.691 37.2323L155.666 33.3894V30.9027H160.212V42.0297C160.212 44.6085 159.517 46.5174 158.127 47.7565C156.737 48.9956 154.77 49.6152 152.225 49.6152ZM151.396 43.8131C150.19 43.8131 149.077 43.5452 148.055 43.0093C147.05 42.4567 146.238 41.6948 145.619 40.7236C145.016 39.7357 144.715 38.5719 144.715 37.2323C144.715 35.8927 145.016 34.7373 145.619 33.7661C146.238 32.7782 147.05 32.0163 148.055 31.4804C149.077 30.9446 150.19 30.6767 151.396 30.6767C152.551 30.6767 153.539 30.9111 154.36 31.38C155.18 31.8321 155.8 32.5437 156.218 33.5149C156.654 34.4862 156.871 35.7253 156.871 37.2323C156.871 38.7394 156.654 39.9785 156.218 40.9497C155.8 41.9209 155.18 42.6409 154.36 43.1098C153.539 43.5786 152.551 43.8131 151.396 43.8131ZM152.526 40.0203C153.095 40.0203 153.598 39.9031 154.033 39.6687C154.485 39.4343 154.837 39.1077 155.088 38.6891C155.356 38.2705 155.49 37.7849 155.49 37.2323C155.49 36.6797 155.356 36.1941 155.088 35.7755C154.837 35.3569 154.485 35.0387 154.033 34.8211C153.598 34.5866 153.095 34.4694 152.526 34.4694C151.957 34.4694 151.446 34.5866 150.994 34.8211C150.542 35.0387 150.182 35.3569 149.914 35.7755C149.663 36.1941 149.537 36.6797 149.537 37.2323C149.537 37.7849 149.663 38.2705 149.914 38.6891C150.182 39.1077 150.542 39.4343 150.994 39.6687C151.446 39.9031 151.957 40.0203 152.526 40.0203Z" fill="white"/>
<circle cx="25.1174" cy="25.1174" r="25.1174" fill="url(#paint0_linear_0_55)"/>
<path d="M25.9463 35.422C23.3508 35.422 21.3247 34.7103 19.8679 33.287C18.411 31.8637 17.6826 29.8459 17.6826 27.2337V17.4882H22.6559V27.083C22.6559 28.59 22.9489 29.6701 23.535 30.3231C24.1378 30.9762 24.9583 31.3027 25.9965 31.3027C27.0347 31.3027 27.8468 30.9762 28.4329 30.3231C29.019 29.6701 29.312 28.59 29.312 27.083V17.4882H34.2099V27.2337C34.2099 29.8459 33.4815 31.8637 32.0247 33.287C30.5679 34.7103 28.5417 35.422 25.9463 35.422Z" fill="white"/>
<defs>
<linearGradient id="paint0_linear_0_55" x1="25.1174" y1="0" x2="25.1174" y2="50.2347" gradientUnits="userSpaceOnUse">
<stop stop-color="#F20493"/>
<stop offset="1" stop-color="#9616C4"/>
</linearGradient>
</defs>
</svg>
