<svg width="37" height="36" viewBox="0 0 37 36" fill="none" xmlns="http://www.w3.org/2000/svg">
<path d="M20.8874 18.001L27.5671 11.3213C27.8841 11.0048 28.0624 10.5754 28.0628 10.1275C28.0632 9.67953 27.8856 9.24979 27.5692 8.93277C27.2527 8.61575 26.8233 8.43743 26.3754 8.43704C25.9274 8.43664 25.4977 8.6142 25.1807 8.93066L18.501 15.6103L11.8213 8.93066C11.5043 8.61365 11.0743 8.43555 10.626 8.43555C10.1776 8.43555 9.74768 8.61365 9.43066 8.93066C9.11365 9.24768 8.93555 9.67765 8.93555 10.126C8.93555 10.5743 9.11365 11.0043 9.43066 11.3213L16.1103 18.001L9.43066 24.6807C9.11365 24.9977 8.93555 25.4276 8.93555 25.876C8.93555 26.3243 9.11365 26.7543 9.43066 27.0713C9.74768 27.3883 10.1776 27.5664 10.626 27.5664C11.0743 27.5664 11.5043 27.3883 11.8213 27.0713L18.501 20.3916L25.1807 27.0713C25.4977 27.3883 25.9276 27.5664 26.376 27.5664C26.8243 27.5664 27.2543 27.3883 27.5713 27.0713C27.8883 26.7543 28.0664 26.3243 28.0664 25.876C28.0664 25.4276 27.8883 24.9977 27.5713 24.6807L20.8874 18.001Z" fill="#9AA0AB"/>
</svg>
