<svg width="25" height="25" viewBox="0 0 25 25" fill="none" xmlns="http://www.w3.org/2000/svg">
<g clip-path="url(#clip0_0_137)">
<path d="M7.90157 24.8041C7.26699 24.8041 6.72427 24.5743 6.27338 24.1148C5.8225 23.6559 5.59706 23.1091 5.59706 22.4746V13.1814L3.76849 8.77281H1.58923V6.76889H5.12113L6.77436 10.7767H21.5783C21.9624 10.7767 22.2546 10.9354 22.455 11.2526C22.6554 11.5699 22.6637 11.8956 22.48 12.2296L19.6245 17.8155C20.4761 17.9491 21.1902 18.3415 21.7667 18.9928C22.3424 19.644 22.6303 20.4122 22.6303 21.2973C22.6303 22.2658 22.2923 23.0924 21.6164 23.7771C20.9397 24.4618 20.1171 24.8041 19.1485 24.8041C18.1633 24.8041 17.3327 24.4618 16.6567 23.7771C15.98 23.0924 15.6417 22.2658 15.6417 21.2973C15.6417 20.9633 15.6834 20.6544 15.7669 20.3705C15.8504 20.0866 15.9673 19.811 16.1176 19.5438L12.8362 19.2433L9.83033 23.7521C9.61324 24.0861 9.33336 24.3449 8.99069 24.5286C8.64869 24.7123 8.28565 24.8041 7.90157 24.8041ZM7.92661 22.7752C7.96001 22.7752 8.03516 22.7334 8.15205 22.6499L10.5818 19.0429C9.76354 18.9594 9.12061 18.763 8.65303 18.4537C8.18545 18.1451 7.83477 17.8238 7.60098 17.4898V22.4996C7.60098 22.5831 7.63438 22.6499 7.70117 22.7C7.76797 22.7501 7.84312 22.7752 7.92661 22.7752ZM19.1235 22.8002C19.5577 22.8002 19.9167 22.6539 20.2006 22.3614C20.4845 22.0694 20.6264 21.7148 20.6264 21.2973C20.6264 20.8631 20.4845 20.5041 20.2006 20.2202C19.9167 19.9363 19.5577 19.7943 19.1235 19.7943C18.706 19.7943 18.3513 19.9363 18.0594 20.2202C17.7668 20.5041 17.6206 20.8631 17.6206 21.2973C17.6206 21.7148 17.7668 22.0694 18.0594 22.3614C18.3513 22.6539 18.706 22.8002 19.1235 22.8002Z" fill="url(#paint0_linear_0_137)"/>
</g>
<defs>
<linearGradient id="paint0_linear_0_137" x1="5.38042" y1="21.1971" x2="22.6715" y2="21.0623" gradientUnits="userSpaceOnUse">
<stop stop-color="#9616C4"/>
<stop offset="1" stop-color="#F20493"/>
</linearGradient>
<clipPath id="clip0_0_137">
<rect width="24.047" height="24.047" fill="white" transform="translate(0.58728 0.757172)"/>
</clipPath>
</defs>
</svg>
