<svg width="47" height="47" viewBox="0 0 47 47" fill="none" xmlns="http://www.w3.org/2000/svg">
<g clip-path="url(#clip0_0_155)">
<path d="M13.6818 1.03671C11.2346 1.15217 9.56339 1.54271 8.10243 2.11679C6.59041 2.70605 5.30885 3.49679 4.03373 4.77651C2.75861 6.05623 1.97339 7.33871 1.38827 8.85303C0.82201 10.3172 0.43837 11.9898 0.33027 14.4384C0.22217 16.8869 0.19825 17.674 0.21021 23.9199C0.22217 30.1658 0.24977 30.9487 0.36845 33.4023C0.48529 35.849 0.87445 37.5198 1.44853 38.9812C2.03871 40.4932 2.82853 41.7743 4.10871 43.0499C5.38889 44.3255 6.67045 45.1089 8.18845 45.6949C9.65125 46.2602 11.3243 46.6457 13.7724 46.7529C16.2205 46.8601 17.0085 46.8849 23.2525 46.873C29.4966 46.861 30.2827 46.8334 32.7359 46.717C35.1891 46.6006 36.851 46.2087 38.3129 45.6374C39.8249 45.0458 41.107 44.2574 42.3816 42.9767C43.6563 41.6961 44.441 40.4127 45.0257 38.8975C45.5924 37.4347 45.9774 35.7617 46.0837 33.3154C46.1909 30.8604 46.2162 30.0765 46.2042 23.8316C46.1923 17.5866 46.1642 16.8037 46.0478 14.351C45.9314 11.8982 45.5418 10.2326 44.9682 8.77023C44.3771 7.25821 43.5882 5.97803 42.3085 4.70153C41.0288 3.42503 39.7444 2.64073 38.2297 2.05745C36.7659 1.49119 35.0938 1.10525 32.6457 0.999451C30.1976 0.893651 29.4096 0.866511 23.1633 0.878471C16.917 0.890431 16.1349 0.917111 13.6818 1.03671ZM13.9504 42.6152C11.7079 42.5177 10.4903 42.1451 9.67885 41.8332C8.60429 41.4192 7.83885 40.9187 7.03017 40.1179C6.22149 39.317 5.72469 38.5488 5.30517 37.4765C4.99007 36.6651 4.61057 35.4489 4.50569 33.2064C4.39161 30.7826 4.36769 30.0549 4.35435 23.9144C4.34101 17.7738 4.36447 17.047 4.47073 14.6224C4.56641 12.3817 4.94131 11.1627 5.25273 10.3517C5.66673 9.27577 6.16537 8.51171 6.96807 7.70349C7.77077 6.89527 8.53667 6.39755 9.60985 5.97803C10.4204 5.66155 11.6366 5.28527 13.8782 5.17855C16.3038 5.06355 17.0306 5.04055 23.1702 5.02721C29.3098 5.01387 30.0384 5.03687 32.4649 5.14359C34.7056 5.24111 35.9251 5.61233 36.7351 5.92559C37.8101 6.33959 38.5751 6.83685 39.3833 7.64093C40.1916 8.44501 40.6897 9.20815 41.1093 10.2836C41.4262 11.0919 41.8025 12.3076 41.9083 14.5506C42.0237 16.9762 42.05 17.7034 42.061 23.8426C42.072 29.9818 42.0504 30.7109 41.9442 33.1346C41.8462 35.3771 41.4745 36.5952 41.1622 37.4075C40.7482 38.4816 40.2491 39.2475 39.4459 40.0553C38.6427 40.863 37.8778 41.3608 36.8041 41.7803C35.9945 42.0963 34.7769 42.4735 32.5372 42.5802C30.1116 42.6943 29.3848 42.7182 23.2429 42.7316C17.1009 42.7449 16.3764 42.7201 13.9509 42.6152M32.7005 11.5831C32.7014 12.129 32.8642 12.6624 33.1682 13.1158C33.4723 13.5692 33.904 13.9222 34.4087 14.1303C34.9134 14.3383 35.4685 14.392 36.0038 14.2845C36.539 14.1771 37.0303 13.9133 37.4157 13.5266C37.801 13.1398 38.0629 12.6475 38.1684 12.1119C38.2739 11.5763 38.2182 11.0214 38.0083 10.5174C37.7985 10.0135 37.4438 9.58308 36.9893 9.28067C36.5348 8.97827 36.0009 8.81744 35.4549 8.81853C34.7231 8.81999 34.0218 9.11206 33.5053 9.63049C32.9887 10.1489 32.6992 10.8513 32.7005 11.5831ZM11.3979 23.8987C11.4107 30.4215 16.7081 35.6973 23.2295 35.6848C29.7509 35.6724 35.0304 30.3755 35.0179 23.8527C35.0055 17.3299 29.7068 12.0528 23.1844 12.0657C16.6621 12.0786 11.3854 17.3768 11.3979 23.8987ZM15.5406 23.8904C15.5376 22.3741 15.9843 20.8909 16.8243 19.6284C17.6642 18.366 18.8597 17.3809 20.2595 16.7979C21.6592 16.2148 23.2005 16.0599 24.6883 16.3528C26.1761 16.6457 27.5436 17.3732 28.6179 18.4433C29.6923 19.5134 30.4252 20.878 30.724 22.3647C31.0227 23.8513 30.874 25.3931 30.2964 26.7952C29.7189 28.1973 28.7386 29.3966 27.4795 30.2415C26.2204 31.0865 24.739 31.5391 23.2226 31.5421C22.2158 31.5442 21.2184 31.3479 20.2874 30.9645C19.3564 30.5811 18.51 30.0181 17.7966 29.3075C17.0833 28.597 16.5169 27.7529 16.1298 26.8234C15.7427 25.8939 15.5425 24.8973 15.5406 23.8904Z" fill="url(#paint0_linear_0_155)"/>
</g>
<defs>
<linearGradient id="paint0_linear_0_155" x1="23.2072" y1="0.875854" x2="23.2072" y2="46.8757" gradientUnits="userSpaceOnUse">
<stop stop-color="#F20493"/>
<stop offset="1" stop-color="#9616C4"/>
</linearGradient>
<clipPath id="clip0_0_155">
<rect width="46" height="46" fill="white" transform="translate(0.20752 0.875488)"/>
</clipPath>
</defs>
</svg>
