<svg width="46" height="47" viewBox="0 0 46 47" fill="none" xmlns="http://www.w3.org/2000/svg">
<g clip-path="url(#clip0_0_151)">
<path fill-rule="evenodd" clip-rule="evenodd" d="M39.2361 7.56401C34.9493 3.24707 29.2335 0.875488 23.1469 0.875488C10.6137 0.875488 0.403862 11.105 0.392954 23.6624C0.392954 27.6842 1.44012 31.5968 3.42536 35.0613L0.20752 46.8755L12.2717 43.7061C15.5986 45.5203 19.34 46.482 23.1469 46.482H23.1578C35.691 46.482 45.9009 36.2525 45.9118 23.6842C45.9009 17.5968 43.5338 11.87 39.2361 7.56401ZM23.1469 42.6241C19.7436 42.6241 16.4167 41.7061 13.5152 39.9793L12.828 39.564L5.67239 41.4438L7.58128 34.4493L7.13406 33.7279C5.23608 30.7116 4.24345 27.2252 4.24345 23.6514C4.24345 13.2252 12.7298 4.72248 23.1578 4.72248C28.2082 4.72248 32.9531 6.70062 36.5309 10.2744C40.0978 13.8591 42.0613 18.6132 42.0613 23.6733C42.0504 34.1323 33.564 42.6241 23.1469 42.6241ZM33.5203 28.4383C32.9531 28.1542 30.1607 26.7771 29.6371 26.5804C29.1135 26.3946 28.7318 26.2963 28.3609 26.8646C27.9791 27.4329 26.8883 28.7225 26.5611 29.0941C26.2339 29.4766 25.8957 29.5203 25.3285 29.2361C24.7613 28.952 22.9287 28.3509 20.7581 26.4055C19.0673 24.8973 17.9329 23.0285 17.5948 22.4602C17.2675 21.8919 17.562 21.5859 17.8456 21.3017C18.0965 21.0504 18.4129 20.6351 18.6965 20.3072C18.9801 19.9793 19.0782 19.7389 19.2637 19.3564C19.4491 18.9739 19.3619 18.646 19.22 18.3618C19.0782 18.0777 17.9438 15.2689 17.4639 14.1323C17.0057 13.0176 16.5367 13.1706 16.1876 13.1596C15.8604 13.1378 15.4786 13.1378 15.0968 13.1378C14.7151 13.1378 14.1042 13.2799 13.5806 13.8482C13.0571 14.4165 11.5954 15.7935 11.5954 18.6023C11.5954 21.411 13.6352 24.1105 13.9188 24.493C14.2024 24.8755 17.922 30.6241 23.6269 33.0941C24.9794 33.6842 26.0375 34.034 26.8665 34.2963C28.23 34.7334 29.4626 34.6678 30.4443 34.5258C31.5351 34.3618 33.804 33.1487 34.2839 31.8154C34.7529 30.482 34.7529 29.3454 34.6111 29.105C34.4693 28.8646 34.0876 28.7225 33.5203 28.4383Z" fill="url(#paint0_linear_0_151)"/>
</g>
<defs>
<linearGradient id="paint0_linear_0_151" x1="23.0596" y1="0.875488" x2="23.0596" y2="46.8755" gradientUnits="userSpaceOnUse">
<stop stop-color="#F20493"/>
<stop offset="1" stop-color="#9616C4"/>
</linearGradient>
<clipPath id="clip0_0_151">
<rect width="45.6933" height="46" fill="white" transform="translate(0.20752 0.875488)"/>
</clipPath>
</defs>
</svg>
